<svg id="Ebene_1" data-name="Ebene 1" xmlns="http://www.w3.org/2000/svg" width="400" height="203.69" viewBox="0 0 400 203.69"><title>wtf_short-01</title><path d="M159.64,47.83c-4.74.56-9.49,1.06-14.24,1.56-1.62.17-2.84.51-3.29,2.5-1.28,5.56-2.77,11.08-4.24,16.59-2.63,9.82-5.33,19.61-7.94,29.43-1.11,4.18-2.06,8.41-3.13,12.79-.33-.35-.47-.44-.53-.57-3.58-8.57-4.76-17.79-7-26.73a49.29,49.29,0,0,0-4.1-11.88,2.06,2.06,0,0,0-2.76-1.16c-2.88.91-5.83,1.57-8.75,2.35-1.9.5-3.8,1-5.67,1.56a1.67,1.67,0,0,0-1.24,2.51c.57,1.46,1,3,1.51,4.38-2.08.52-3.94.85-5.7,1.47a4.14,4.14,0,0,0-2.32,1.78C88.55,88.25,87,92.17,85.47,96.1c-1.75,4.54-3.41,9.11-5.11,13.67l-.54,0c-.65-3.35-1.11-6.75-2-10-1.12-4.13-2.57-8.17-3.94-12.23-2.53-7.55-4.21-15.43-9-22.08-1.13-1.55-2.51-2.28-4.11-1.79-4.5,1.4-8.88,3.18-13.37,4.61-2.34.74-2,1.88-1.27,3.67,2.55,6.32,5.2,12.62,7.32,19.09,3.33,10.12,6.31,20.35,9.35,30.55,1.13,3.79,2,7.65,3,11.25l8-.68c-.2,1.46-.31,2.63-.52,3.79-.38,2.17.21,3.11,2.36,3.16,1.72,0,3.45-.34,5.18-.35,2.16,0,4.32.18,6.74.29l3.8-.37c2.28-12.54,6.53-24.79,11.82-37.13,1.16,3.62,2.13,6.92,3.27,10.15,3,8.54,6,17,9,25.56.27.75.26,1.5,1.68,1.23,1.21-.22,2.62.62,4,1-.74,4.23-1.55,8.4-2.18,12.6a2.29,2.29,0,0,0,2.78,2.71c1.29-.16,2.93-1.13,3.76-.64,2.3,1.36,5-1,7,1,.08.09.37,0,.54,0a3,3,0,0,1,2.86.1c.24.11,1-.29,1.1-.6a35.85,35.85,0,0,0,1.38-4.83c1.33-7,2.42-14.14,3.92-21.14,1.63-7.63,3.64-15.18,5.45-22.77,1.46-6.17,2.72-12.39,4.32-18.52,2-7.52,4.3-15,6.29-22.47,1.24-4.65,2.18-9.38,3.2-14.08.42-1.93-.46-3.1-1.93-2.93"/><path d="M328.14,52.56c-7,1-14,2.27-20.94,3.79-7.3,1.6-14.5,3.66-21.77,5.43-1.52.38-3.2.87-4.24-1.19-.21-.42-1.39-.56-2.08-.47-1.93.26-3.83.72-5.75,1.07-2.68.49-5.42.8-8.05,1.5a4.61,4.61,0,0,0-3.77,4.18c-.86,8.33-1.79,16.66-2.67,25-.41,4-.78,8-1.16,11.8a23.77,23.77,0,0,0-2.32.59c-2.14.81-4,1.72-3.94,4.62.15,3.95-.17,7.93.14,11.87.15,2,.67,4.3,2.63,5-.5,7-.87,13.74-1.49,20.42-.41,4.37-1.17,8.71-1.79,13.06-.21,1.44-.7,3,1.78,2.72,2.21-.22,4.45-.23,6.66-.43a36.92,36.92,0,0,0,3.62-.75c.15.07.91.75,1.5.63a41.49,41.49,0,0,0,4.73-1.56c.51-2.27,1.18-4.55,1.5-6.89,1.36-9.61,2.57-19.24,4-28.85a3,3,0,0,1,1.82-2c1.91-.51,3.94-.54,5.91-.87,12.54-2.08,25.1-4,37.87-4a3.1,3.1,0,0,0,3.25-2.76c.3-1.56.85-3.08,1.25-4.62.89-3.54,1.77-7.08,2.64-10.58a24.3,24.3,0,0,0-11.75-2.1c-9.39.83-18.79,1.46-28.18,2.24-3,.25-5.95.72-9.28,1.14.8-5.29,1.59-10.14,2.22-15a2.48,2.48,0,0,1,2.18-2.36c9.46-2.44,18.86-5.17,28.38-7.32,7.87-1.77,15.77-3.69,24-3.47,1,0,2.34-1.24,2.87-2.25.88-1.68,1.11-3.69,1.84-5.46s-.29-3.94,1.63-5.25c.09-.07.09-.28.1-.43.11-1.43.21-2.86.31-4.27C340,54,338.34,53,336.59,52.73a31.51,31.51,0,0,0-8.45-.17"/><path d="M253,62.87c.52-2.12,1.08-4.24,1.6-6.24-2-.72-3.57-1.62-5.26-1.85-3.85-.52-7.74-.86-11.62-1-13.33-.48-26.68-.63-40-1.35-9.17-.49-18.3-1.71-27.44-2.63-2.3-.24-3.61.56-4.24,2.8a24.93,24.93,0,0,1-.6,2.62c-1,2.44-.2,5.06-1.27,7.65-1.46,3.54.06,6.83,2.76,7.7A32,32,0,0,0,173.64,72c6.11.59,12.24,1,18.36,1.41,1.33.09,2,.49,1.7,1.88-.48,2.17-1,4.33-1.5,6.49-1.4,6.07-3,12.11-4.15,18.22-1.32,6.94-2.52,13.93-3.34,20.94-1,8.53-1.62,17.09-2.24,25.65-.2,2.7,2.42,4.18,5.1,3.46a30.1,30.1,0,0,1,5.23-.5,9.42,9.42,0,0,0,1.3-.16c2-.48,4-.91,6-1.51,1.09-.34,2.45-.33,2.67-2.1,1-8.14,1.74-16.32,3.16-24.39,1.9-10.82,4.27-21.56,6.56-32.31,1-4.56,2.22-9.07,3.5-13.56A2.56,2.56,0,0,1,217.86,74c3.51-.07,7,.11,10.53.19,6.17.13,12.34.27,18.5.38a3.72,3.72,0,0,0,1.25-.32c2.82-1.1,2.41-4.13,3.57-6.21.84-1.51.88-3.46,1.32-5.21"/><path d="M370.52,59.84c-.49,6.82-1,13.62-1.52,20.44-.28,3.72-.68,7.44-.71,11.16-.08,10.11.23,20.22,0,30.33-.23,9-.81,18-1.6,27-.66,7.41-1.87,14.78-2.85,22.28-3.82,0-7.53-.16-11.23,0-3.15.15-6.28,1.07-9.42,1-8.09-.14-16.05,2.11-24.19,1.16a21.84,21.84,0,0,0-5.6.5c-2.38.36-2.53.4-5.69-.72a1.62,1.62,0,0,0-.95,0c-2.28.74-4.43,2.61-7,.77-1.52,1-2.75.1-4,.39-6.05,1.34-12.16-.1-18.21.61-2.54.3-5.06.68-7.95,1.07a33.33,33.33,0,0,0-4.94-.56c-5.59.08-11.17.57-16.74.47-15.19-.28-30.36-.84-45.54-1.14-4.18-.08-8.36.51-12.54.54-5.53,0-11.06-.35-16.58-.24q-17,.31-34,1.05c-2,.09-4,1.64-6,1.74-3.53.19-7.09-.46-10.62-.32s-6.83.94-10.27,1.23q-12.3,1.07-24.61,1.9c-8.9.61-17.81,1.14-26.72,1.64-3.4.19-7.11-.63-10.12.5-4.17,1.56-8.15.66-12.18.76-5.21.13-10.44-.29-15.66-.52a11.82,11.82,0,0,1-2.24-.55l0-1.09,7.09-1c0-4.31.09-8.94-.15-13.55-1.59-31.72.63-63.3,3-94.9,1.13-15,1.29-30.1,1.82-45.15.08-2.41-.22-4.84-.39-8.17a32.65,32.65,0,0,0,4.18,1.83c4.79,1.27,9.58,2.7,14.46,3.51,2.39.39,5-.65,7.49-.69,4.18-.06,8.37.19,12.56.25,3.14.05,6.3.13,9.44,0,8.26-.34,16.52-.93,24.78-1.17,8.61-.25,17.22-.21,25.83-.31,7.81-.09,15.63-.26,23.44-.27,5.43,0,10.85.23,16.28.29,1.95,0,3.9-.19,5.86-.23,2.94-.05,5.88-.08,8.82,0,3.62.06,7.24.25,10.86.32,11.82.21,23.64.38,35.47.61,8.56.16,17.11.46,25.66.53,9.26.08,18.52-.12,27.78-.05,5.27,0,10.55.37,15.82.62,4.36.2,5.28-.4,6.72-4.26a22.43,22.43,0,0,1,2-3.28c.35-1.28.76-2.93,1.32-4.54.08-.25,1-.49,1.3-.31a1.6,1.6,0,0,1,.62,1.34,25.56,25.56,0,0,1-1.94,4.92c-1.63,2.87-.73,5.34,2.44,6.39,10.63,3.49,21.58,4.38,32.71,4.42,6.58,0,13.17.69,19.77,1a7.68,7.68,0,0,0,3-.72c2.12-.85,3.8-.05,3.67,2.12-.58,9.71-1.29,19.4-2,29.1M399.82,29a158,158,0,0,0-4-23.33c-1.05-4.37-2.08-5.49-6.13-3.74-1.52.66-3.16,1.67-4.68,1.58-3.71-.21-8.64,3.73-10.51-3.52-.86,1.32-1.73,2-1.7,2.7.21,4.65-3,4.23-6,4.26a5.09,5.09,0,0,0-1.5,0c-6.77,2.17-13.68,1.71-20.61,1.21-1.17-.09-2.5-.5-3.49-.09-4,1.65-7.87.36-11.82-.07-5.07-.54-10.37-2.73-15.06,1.38-.27.25-.84.18-1.55.3L317.26.42c-5.36,0-10,0-14.71,0C294.77.36,287,.12,279.2.18c-6.23,0-12.46.41-18.68.66-6.78.28-13.57.46-20.34.91-4.25.28-8.47,1.11-12.73,1.44-7.38.58-14.78,1-22.18,1.42-4.77.29-9.54.71-14.31.77-7.3.1-14.59-.11-21.89-.09-1.3,0-2.62.82-3.89.73-2.29-.16-4.56-1.11-6.81-1-2.92.13-5.79,1.35-8.71,1.41-9,.21-17.95,0-26.92.12s-17.87.41-26.8.52C88.7,7.13,81.35,8.8,74.28,5.78a1.79,1.79,0,0,0-1-.07c-2.65.39-5.28.9-7.94,1.18A5.44,5.44,0,0,1,62,6.43c-3-2.23-6.62-1.23-9.8-2.31-.22-.08-.64.75-1,.83a18,18,0,0,1-2.45.16c-2.5.18-5.51-.45-7.38.72-3.42,2.17-6.17,5.4-9.39,8.36-.24-1.58-.42-2.73-.58-3.87S31,8,30.93,6.82c-.16-4.4-2.85-6.48-7.28-5.44q-8.46,2-16.89,4.1c-3.52.88-4.3,2-3.71,5.73,1.86,11.6,1.79,23.27,1.19,34.94-.55,10.77-1.45,21.51-2,32.28q-1,19.35-1.69,38.73C.21,126.31,0,135.47,0,144.62c0,8.93.43,17.85.5,26.78,0,4.44-.77,9,3.28,11.86l3.82-.79c-1.55,3-2.57,5.42-4,7.6-2.89,4.39-2.27,7,2.86,8.45a128.77,128.77,0,0,0,14.6,3.08c14.06,2.27,28.25,1.85,42.4,1.27,7.41-.3,14.79-1.35,22.19-1.85,10.47-.71,21-1.29,31.44-1.8,9.45-.45,18.9-1.13,28.33-1,13.57.21,27.12,1.06,40.68,1.69,7.89.37,15.76,1,23.65,1.21,10,.29,20,.36,30,.38,7.65,0,15.31,0,22.95-.31,10.58-.51,21.14-1.41,31.71-2.1,10.13-.66,20.25-1.52,30.39-1.85,9-.28,18.05,0,27.07.09,1.06,0,2.13.09,3.19.09,3.09,0,6.18-.06,9.15-.1.62,3.62,3,6.7,4.82,6.32,3.61-.75,7.16-1.77,10.72-2.75s7.19-2.07,11.29-3.26c-.35-4.49-1.16-9.1-.95-13.67.36-7.84,1.39-15.64,2.11-23.46,1.17-12.78,2.62-25.53,3.38-38.33.52-8.92-.18-17.91.13-26.85.33-9.25,1.17-18.5,1.85-27.74.49-6.72,1.15-13.43,1.57-20.15.4-6.14,1.22-12.36.68-18.44"/></svg>